<svg xmlns="http://www.w3.org/2000/svg" version="1.1" xmlns:xlink="http://www.w3.org/1999/xlink" xmlns:svgjs="http://svgjs.dev/svgjs" viewBox="0 0 800 800" width="800" height="800"><g stroke-width="6.5" stroke="hsla(0, 0%, 100%, 1.00)" fill="none"><line x1="0" y1="0" x2="400" y2="400"></line><line x1="400" y1="0" x2="0" y2="400"></line><line x1="400" y1="0" x2="800" y2="400"></line><line x1="800" y1="0" x2="400" y2="400"></line><line x1="800" y1="0" x2="1200" y2="400"></line><line x1="1200" y1="0" x2="800" y2="400"></line><line x1="0" y1="400" x2="400" y2="800"></line><line x1="400" y1="400" x2="0" y2="800"></line><line x1="400" y1="400" x2="800" y2="800"></line><line x1="800" y1="400" x2="400" y2="800"></line><line x1="800" y1="400" x2="1200" y2="800"></line><line x1="1200" y1="400" x2="800" y2="800"></line><line x1="0" y1="800" x2="400" y2="1200"></line><line x1="400" y1="800" x2="0" y2="1200"></line><line x1="400" y1="800" x2="800" y2="1200"></line><line x1="800" y1="800" x2="400" y2="1200"></line><line x1="800" y1="800" x2="1200" y2="1200"></line><line x1="1200" y1="800" x2="800" y2="1200"></line></g></svg>